<svg width="21" height="21" viewBox="0 0 21 21" fill="none" xmlns="http://www.w3.org/2000/svg">
<path d="M10.4521 0.823486C4.93215 0.823486 0.452148 5.30349 0.452148 10.8235C0.452148 16.3435 4.93215 20.8235 10.4521 20.8235C15.9721 20.8235 20.4521 16.3435 20.4521 10.8235C20.4521 5.30349 15.9721 0.823486 10.4521 0.823486ZM11.8621 16.9135V17.4935C11.8621 18.2235 11.2621 18.8235 10.5321 18.8235H10.5221C9.79215 18.8235 9.19215 18.2235 9.19215 17.4935V16.8935C7.86215 16.6135 6.68215 15.8835 6.18215 14.6535C5.95215 14.1035 6.38215 13.4935 6.98215 13.4935H7.22215C7.59215 13.4935 7.89215 13.7435 8.03215 14.0935C8.32215 14.8435 9.08215 15.3635 10.5421 15.3635C12.5021 15.3635 12.9421 14.3835 12.9421 13.7735C12.9421 12.9435 12.5021 12.1635 10.2721 11.6335C7.79215 11.0335 6.09215 10.0135 6.09215 7.96349C6.09215 6.24349 7.48215 5.12349 9.20215 4.75349V4.15349C9.20215 3.42349 9.80215 2.82349 10.5321 2.82349H10.5421C11.2721 2.82349 11.8721 3.42349 11.8721 4.15349V4.77349C13.2521 5.11349 14.1221 5.97349 14.5021 7.03349C14.7021 7.58349 14.2821 8.16349 13.6921 8.16349H13.4321C13.0621 8.16349 12.7621 7.90349 12.6621 7.54349C12.4321 6.78349 11.8021 6.29349 10.5421 6.29349C9.04215 6.29349 8.14215 6.97349 8.14215 7.93349C8.14215 8.77349 8.79215 9.32349 10.8121 9.84349C12.8321 10.3635 14.9921 11.2335 14.9921 13.7535C14.9721 15.5835 13.6021 16.5835 11.8621 16.9135V16.9135Z" fill="#24CBEA"/>
</svg>
