<svg width="21" height="20" viewBox="0 0 21 20" fill="none" xmlns="http://www.w3.org/2000/svg">
<path d="M10.4521 0C4.95215 0 0.452148 4.5 0.452148 10C0.452148 15.5 4.95215 20 10.4521 20C15.9522 20 20.4522 15.5 20.4522 10C20.4522 4.5 15.9522 0 10.4521 0ZM14.0022 13.8L9.92215 11.29C9.62215 11.11 9.44215 10.79 9.44215 10.44V5.75C9.45215 5.34 9.79215 5 10.2021 5C10.6121 5 10.9521 5.34 10.9521 5.75V10.2L14.7922 12.51C15.1522 12.73 15.2722 13.2 15.0522 13.56C14.8322 13.91 14.3622 14.02 14.0022 13.8Z" fill="#24CBEA"/>
</svg>
